# xmcd
#
# Track frame offsets:
#	150
#	16607
#	31828
#	47418
#	63805
#	78923
#	93513
#	111047
#	126602
#	141880
#	154748
#	166557
#	181822
#	198489
#	215067
#	231512
#
# Disc length: 3290 seconds
#
# Revision: 2
# Processed by: cddbd v1.5.2PL0 Copyright (c) Steve Scherf et al.
# Submitted via: audiograbber 1.83.01
#
DISCID=cc0cd810
DTITLE=Gabriella Cilmi - Lessons To Be Learned
DYEAR=2008
DGENRE=Soul
TTITLE0=Save The Lies (Good To Me)
TTITLE1=Sweet About Me
TTITLE2=Sanctuary
TTITLE3=Einstein
TTITLE4=Got No Place To Go
TTITLE5=Don't Want To Go To Bed Now
TTITLE6=Messy
TTITLE7=Awkward Game
TTITLE8=Safer
TTITLE9=Cigarettes And Lies
TTITLE10=Terrifying
TTITLE11=Sit In The Blues
TTITLE12=Sweet About Me (Acoustic)
TTITLE13=Cry Me A River
TTITLE14=Round and Round
TTITLE15=Echo Beach
EXTD=YEAR: 2008
EXTT0=
EXTT1=
EXTT2=
EXTT3=
EXTT4=
EXTT5=
EXTT6=
EXTT7=
EXTT8=
EXTT9=
EXTT10=
EXTT11=
EXTT12=
EXTT13=
EXTT14=
EXTT15=
PLAYORDER=
